<?xml version="1.0" encoding="utf-8"?>
<!-- Generator: Adobe Illustrator 24.0.0, SVG Export Plug-In . SVG Version: 6.00 Build 0)  -->
<svg version="1.1" id="Layer_1" xmlns="http://www.w3.org/2000/svg" xmlns:xlink="http://www.w3.org/1999/xlink" x="0px" y="0px"
	 viewBox="0 0 300 52" style="enable-background:new 0 0 300 52;" xml:space="preserve">
<style type="text/css">
	.st0{fill:#111111;}
</style>
<path class="st0" d="M10.8,49.8H0V2h10.8v7c3.9-5.2,9.8-8,16.7-8c10.9,0,17.3,7.3,17.3,18.7v30.1H34v-28c0-7.3-3.8-11.1-9.7-11.1
	c-8.1,0-13.4,7.3-13.4,18.2C10.8,28.9,10.8,49.8,10.8,49.8z M51.9,25.9C51.9,11,61.5,1,75.7,1s23.8,10,23.8,24.9
	c0,14.8-9.6,24.9-23.8,24.9S51.9,40.8,51.9,25.9z M88.5,25.9c0-9.2-5.2-15.3-12.7-15.3S63,16.8,63,25.9c0,9.1,5.2,15.3,12.7,15.3
	S88.5,35,88.5,25.9L88.5,25.9z M117.9,49.8H107V2h10.8v7c3.4-5.3,8.4-8,14.2-8c6.3,0,11.9,3.4,14.5,9.4c3.9-6.2,10.2-9.4,16.7-9.4
	c9.2,0,15.6,6.5,15.6,17.6v31.2H168V21.2c0-6.9-3-10.6-8.5-10.6c-7.2,0-11.3,6.6-11.3,18.3v20.9h-10.8V21.2c0-7.2-3.2-10.6-8.3-10.6
	c-7,0-11.1,6.8-11.1,18.3V49.8z M188.8,2h10.8v47.8h-10.8C188.8,49.8,188.8,2,188.8,2z M207.1,25.9C207.1,11,217,1,230.9,1
	c10.7,0,18.4,5.7,21.7,15.1l-10.1,4.2c-1.3-6.3-5.3-9.7-11.3-9.7c-7.8,0-12.9,6-12.9,15.3c0,9.3,5.1,15.3,13,15.3
	c5.9,0,9.9-3.4,11.3-9.7l10,4.2c-3.5,9.8-11,15.1-21.4,15.1C216.9,50.8,207.1,40.8,207.1,25.9z M258.4,37.2l9.8-4.5
	c0.7,5.3,6.1,9,12.3,9c4.8,0,8.6-2.3,8.6-5.3c0-8.1-28.7-4.7-28.7-21c0-9,7.9-14.2,18.7-14.2c10.7,0,18.6,5.1,20.5,11.8l-10.3,4.5
	c-0.3-3.9-4.5-7.3-10.4-7.3c-4.3,0-7.7,1.8-7.7,4.4c0,7.8,28.8,4.2,28.8,21.3c0,8.7-7.7,14.8-19.7,14.8
	C268.4,50.8,260.2,45.5,258.4,37.2z"/>
</svg>
